<svg width="160" height="47" viewBox="0 0 160 47" fill="none" xmlns="http://www.w3.org/2000/svg">
<path opacity="0.3" d="M39.8795 11.5119L29.908 17.2678L19.9429 23.0237L9.97146 28.7797L0 34.5356V11.5119L19.9429 0L39.8795 11.5119Z" fill="#42D3FF"/>
<path opacity="0.6" d="M39.8795 34.5358L19.9429 46.0477L0 34.5358L9.97146 28.7799L19.9429 23.0239L29.908 28.7799L39.8795 34.5358Z" fill="#42D3FF"/>
<path d="M39.8799 11.5121V34.5358L29.9085 28.7799L19.9434 23.024L29.9085 17.268L39.8799 11.5121Z" fill="#42D3FF"/>
<path d="M68.9656 31.312C66.7017 31.312 64.8582 30.6172 63.4351 29.2276C62.0121 27.838 61.3021 25.9875 61.3051 23.6759V23.2773C61.2802 21.8395 61.5879 20.4154 62.2043 19.1161C62.758 17.9451 63.6437 16.9626 64.7512 16.2908C65.8892 15.619 67.191 15.2756 68.5122 15.2988C70.624 15.2988 72.2864 15.9647 73.4995 17.2965C74.7126 18.6283 75.3212 20.5169 75.3253 22.9623V24.6466H65.4906C65.6245 25.6558 66.0267 26.4672 66.6972 27.0809C67.3676 27.6945 68.2165 27.9988 69.244 27.9937C70.8334 27.9937 72.0755 27.4181 72.9701 26.2669L74.9966 28.5369C74.3556 29.4301 73.4887 30.1369 72.4847 30.5847C71.3794 31.0829 70.1778 31.3312 68.9656 31.312ZM68.4955 18.6247C68.1233 18.6116 67.7527 18.6791 67.4089 18.8224C67.0652 18.9658 66.7565 19.1817 66.5039 19.4554C65.9968 20.0092 65.6711 20.8024 65.5271 21.8349H71.263V21.5048C71.2447 20.5919 70.9977 19.8819 70.522 19.3748C70.0463 18.8676 69.3708 18.6176 68.4955 18.6247Z" fill="white"/>
<path d="M82.3687 20.1936L84.9673 15.5836H89.3795L84.9841 23.1482L89.559 31.0232H85.1347L82.3794 26.1713L79.6408 31.0232H75.2012L79.7823 23.1452L75.4096 15.5836H79.8218L82.3687 20.1936Z" fill="white"/>
<path d="M104.091 23.4479C104.091 25.8274 103.551 27.7328 102.471 29.1639C101.391 30.5951 99.9327 31.3112 98.0968 31.3122C96.5378 31.3122 95.277 30.7696 94.3145 29.6843V36.9568H90.1914V15.5836H94.0148L94.1578 17.105C95.1579 15.9061 96.4613 15.3066 98.0679 15.3066C99.9707 15.3066 101.451 16.0106 102.507 17.4184C103.564 18.8262 104.092 20.7671 104.091 23.241V23.4479ZM99.9667 23.1436C99.9667 21.7073 99.7131 20.5987 99.2059 19.8177C98.6988 19.0367 97.9594 18.6467 96.9877 18.6477C95.6924 18.6477 94.8023 19.1427 94.3175 20.1327V26.4588C94.8246 27.4782 95.7238 27.9853 97.015 27.9803C98.9827 27.9803 99.9667 26.3696 99.9667 23.1482V23.1436Z" fill="white"/>
<path d="M109.83 31.0231H105.686V9.10522H109.825L109.83 31.0231Z" fill="white"/>
<path d="M111.416 23.1635C111.39 21.7478 111.692 20.3453 112.3 19.0663C112.854 17.9065 113.741 16.9379 114.848 16.2836C115.956 15.6283 117.242 15.3002 118.708 15.2992C120.792 15.2992 122.493 15.9367 123.811 17.2116C125.128 18.4866 125.863 20.218 126.015 22.4058L126.044 23.4617C126.044 25.8321 125.385 27.7329 124.066 29.1641C122.748 30.5953 120.973 31.3113 118.741 31.3124C116.515 31.3124 114.74 30.5988 113.416 29.1717C112.093 27.7446 111.429 25.8032 111.426 23.3476L111.416 23.1635ZM115.54 23.4556C115.54 24.9243 115.816 26.0461 116.368 26.8211C116.92 27.596 117.709 27.9845 118.737 27.9865C119.735 27.9865 120.515 27.6031 121.077 26.8363C121.639 26.0695 121.92 24.8427 121.92 23.1559C121.92 21.7166 121.639 20.6009 121.077 19.8087C120.515 19.0166 119.725 18.6215 118.708 18.6235C117.7 18.6235 116.92 19.0166 116.368 19.8027C115.816 20.5887 115.54 21.8064 115.54 23.4556Z" fill="white"/>
<path d="M136.092 19.4599C135.6 19.3891 135.105 19.351 134.608 19.3458C133.047 19.3458 132.025 19.8738 131.54 20.9296V31.0229H127.415V15.5803H131.312L131.426 17.4227C132.253 16.0027 133.4 15.2927 134.866 15.2927C135.3 15.2898 135.733 15.3524 136.15 15.4783L136.092 19.4599Z" fill="white"/>
<path d="M143.742 31.312C141.478 31.312 139.635 30.6172 138.211 29.2276C136.788 27.838 136.078 25.9875 136.081 23.6759V23.2773C136.057 21.8395 136.364 20.4154 136.981 19.1161C137.534 17.9451 138.42 16.9626 139.528 16.2908C140.665 15.619 141.967 15.2756 143.289 15.2988C145.4 15.2988 147.063 15.9647 148.276 17.2965C149.489 18.6283 150.097 20.5169 150.102 22.9623V24.6466H140.268C140.402 25.6558 140.805 26.4672 141.475 27.0809C142.145 27.6945 142.994 27.9988 144.022 27.9937C145.611 27.9937 146.853 27.4181 147.748 26.2669L149.774 28.5369C149.133 29.4301 148.267 30.1369 147.263 30.5847C146.157 31.0831 144.955 31.3315 143.742 31.312ZM143.272 18.6247C142.9 18.6131 142.531 18.6817 142.188 18.8258C141.845 18.97 141.538 19.1862 141.286 19.46C140.779 20.0138 140.453 20.807 140.308 21.8395H146.045V21.5093C146.027 20.5965 145.78 19.8865 145.304 19.3793C144.829 18.8722 144.151 18.6206 143.272 18.6247Z" fill="white"/>
<path d="M159.943 19.4599C159.451 19.3891 158.955 19.351 158.458 19.3458C156.897 19.3458 155.874 19.8738 155.389 20.9297V31.0229H151.265V15.5803H155.161L155.275 17.4227C156.103 16.0027 157.249 15.2927 158.715 15.2927C159.15 15.2897 159.583 15.3523 159.999 15.4783L159.943 19.4599Z" fill="white"/>
</svg>
