<svg width="51" height="62" viewBox="0 0 51 62" fill="none" xmlns="http://www.w3.org/2000/svg">
<path d="M25.0716 31.6612C16.1747 31.6612 8.9364 24.864 8.9364 16.5089C8.9364 8.154 16.1747 1.35681 25.0716 1.35681C33.9685 1.35681 41.2068 8.154 41.2068 16.5089C41.2068 24.864 33.9685 31.6612 25.0716 31.6612ZM25.0716 5.18537C18.5626 5.18537 13.2672 10.265 13.2672 16.5089C13.2672 22.7527 18.5626 27.8326 25.0716 27.8326C31.5806 27.8326 36.876 22.7527 36.876 16.5089C36.876 10.265 31.5806 5.18537 25.0716 5.18537Z" fill="#00BFA6"/>
<path d="M25.1073 31.2998C16.1907 31.2998 8.9364 24.2793 8.9364 15.6498C8.9364 7.02046 16.1907 0 25.1073 0C34.0239 0 41.2782 7.02046 41.2782 15.6498C41.2782 24.2793 34.0239 31.2998 25.1073 31.2998ZM25.1073 3.95432C18.5839 3.95432 13.2768 9.20083 13.2768 15.6498C13.2768 22.0987 18.5839 27.3455 25.1073 27.3455C31.6306 27.3455 36.9378 22.0987 36.9378 15.6498C36.9378 9.20083 31.6306 3.95432 25.1073 3.95432Z" fill="#00BFA6"/>
<path d="M40.8132 62.0001H10.1868C7.48602 61.9973 4.89674 61.0187 2.987 59.2788C1.07726 57.539 0.00303812 55.1801 0 52.7196V25.3507C0.00207875 23.6661 0.737513 22.0511 2.04496 20.86C3.35241 19.6688 5.12508 18.9988 6.97411 18.9968H44.0259C45.8749 18.9988 47.6476 19.6688 48.955 20.86C50.2625 22.0511 50.9979 23.6661 51 25.3507V52.7196C50.997 55.1801 49.9228 57.539 48.013 59.2788C46.1033 61.0187 43.514 61.9973 40.8132 62.0001V62.0001Z" fill="white"/>
<path d="M31.2984 37.1027C31.2992 36.1362 31.0172 35.1869 30.4815 34.3527C29.9457 33.5185 29.1755 32.8295 28.2503 32.3566C27.325 31.8837 26.2781 31.6441 25.2174 31.6624C24.1567 31.6806 23.1205 31.9562 22.2155 32.4606C21.3106 32.9651 20.5696 33.6802 20.0689 34.5322C19.5681 35.3843 19.3257 36.3426 19.3667 37.3084C19.4076 38.2743 19.7304 39.2127 20.3018 40.027C20.8732 40.8414 21.6726 41.5023 22.6175 41.9416V50.4485H28.0431V41.9416C29.0226 41.4868 29.845 40.7942 30.4195 39.9402C30.994 39.0863 31.2981 38.1043 31.2984 37.1027V37.1027Z" fill="#2F2E41"/>
<path d="M31.2984 37.1027C31.2992 36.1362 31.0172 35.1869 30.4815 34.3527C29.9457 33.5185 29.1755 32.8295 28.2503 32.3566C27.325 31.8837 26.2781 31.6441 25.2174 31.6624C24.1567 31.6806 23.1205 31.9562 22.2155 32.4606C21.3106 32.9651 20.5696 33.6802 20.0689 34.5322C19.5681 35.3843 19.3257 36.3426 19.3667 37.3084C19.4076 38.2743 19.7304 39.2127 20.3018 40.027C20.8732 40.8414 21.6726 41.5023 22.6175 41.9416V50.4485H28.0431V41.9416C29.0226 41.4868 29.845 40.7942 30.4195 39.9402C30.994 39.0863 31.2981 38.1043 31.2984 37.1027V37.1027Z" fill="#2F2E41"/>
</svg>
