<?xml version="1.0" encoding="UTF-8" standalone="no" ?>
<!DOCTYPE svg PUBLIC "-//W3C//DTD SVG 1.1//EN" "http://www.w3.org/Graphics/SVG/1.1/DTD/svg11.dtd">
<svg xmlns="http://www.w3.org/2000/svg" xmlns:xlink="http://www.w3.org/1999/xlink" version="1.1" width="720" height="720" viewBox="0 0 720 720" xml:space="preserve">
<desc>Created with Fabric.js 4.2.0</desc>
<defs>
</defs>
<g transform="matrix(1 0 0 1 360 360)" id="ee943b02-6f48-4753-adfa-31c561ffc4e0"  >
<rect style="stroke: none; stroke-width: 1; stroke-dasharray: none; stroke-linecap: butt; stroke-dashoffset: 0; stroke-linejoin: miter; stroke-miterlimit: 4; fill: rgb(255,255,255); fill-opacity: 0; fill-rule: nonzero; opacity: 1;" vector-effect="non-scaling-stroke"  x="-360" y="-360" rx="0" ry="0" width="720" height="720" />
</g>
<g transform="matrix(Infinity NaN NaN Infinity 0 0)" id="5c467f7b-53b0-4442-8d4c-1de8cd0800c2"  >
</g>
<g transform="matrix(2.9 0 0 2.9 360 360)"  >
<g style="" vector-effect="non-scaling-stroke"   >
		<g transform="matrix(5.27 0 0 5.27 -0.33 61.02)"  >
<path style="stroke: none; stroke-width: 1; stroke-dasharray: none; stroke-linecap: butt; stroke-dashoffset: 0; stroke-linejoin: miter; stroke-miterlimit: 4; fill: rgb(66,211,255); fill-rule: nonzero; opacity: 0.6;" vector-effect="non-scaling-stroke"  transform=" translate(-19.94, -34.54)" d="M 39.8795 34.5358 L 19.9429 46.0477 L 0 34.5358 L 9.97146 28.7799 L 19.9429 23.0239 L 29.908 28.7799 L 39.8795 34.5358 Z" stroke-linecap="round" />
</g>
		<g transform="matrix(5.27 0 0 5.27 52.88 0.1)"  >
<path style="stroke: none; stroke-width: 1; stroke-dasharray: none; stroke-linecap: butt; stroke-dashoffset: 0; stroke-linejoin: miter; stroke-miterlimit: 4; fill: rgb(66,211,255); fill-rule: nonzero; opacity: 1;" vector-effect="non-scaling-stroke"  transform=" translate(-29.91, -23.02)" d="M 39.8799 11.5121 L 39.8799 34.5358 L 29.9085 28.7799 L 19.9434 23.024 L 29.9085 17.268 L 39.8799 11.5121 Z" stroke-linecap="round" />
</g>
		<g transform="matrix(5.27 0 0 5.27 -0.33 -30.69)"  >
<path style="stroke: none; stroke-width: 1; stroke-dasharray: none; stroke-linecap: butt; stroke-dashoffset: 0; stroke-linejoin: miter; stroke-miterlimit: 4; fill: rgb(66,211,255); fill-rule: nonzero; opacity: 0.3;" vector-effect="non-scaling-stroke"  transform=" translate(-19.94, -17.27)" d="M 39.8795 11.5119 L 29.908 17.2678 L 19.9429 23.0237 L 9.97146 28.7797 L 0 34.5356 L 0 11.5119 L 19.9429 0 L 39.8795 11.5119 Z" stroke-linecap="round" />
</g>
</g>
</g>
</svg>