<svg width="86" height="78" viewBox="0 0 86 78" fill="none" xmlns="http://www.w3.org/2000/svg">
<g opacity="0.3">
<mask id="mask0_23_1954" style="mask-type:alpha" maskUnits="userSpaceOnUse" x="0" y="0" width="8" height="8">
<path d="M3.90962 7.97735C6.06885 7.97735 7.81925 6.19152 7.81925 3.98865C7.81925 1.78577 6.06885 0 3.90962 0C1.7504 0 0 1.78577 0 3.98865C0 6.19152 1.7504 7.97735 3.90962 7.97735Z" fill="url(#paint0_linear_23_1954)"/>
</mask>
<g mask="url(#mask0_23_1954)">
<path d="M3.90962 7.97735C6.06885 7.97735 7.81925 6.19152 7.81925 3.98865C7.81925 1.78577 6.06885 0 3.90962 0C1.7504 0 0 1.78577 0 3.98865C0 6.19152 1.7504 7.97735 3.90962 7.97735Z" fill="url(#paint1_linear_23_1954)"/>
</g>
<mask id="mask1_23_1954" style="mask-type:alpha" maskUnits="userSpaceOnUse" x="22" y="0" width="9" height="8">
<path d="M26.5527 7.97735C28.7119 7.97735 30.4623 6.19152 30.4623 3.98865C30.4623 1.78577 28.7119 0 26.5527 0C24.3935 0 22.6431 1.78577 22.6431 3.98865C22.6431 6.19152 24.3935 7.97735 26.5527 7.97735Z" fill="url(#paint2_linear_23_1954)"/>
</mask>
<g mask="url(#mask1_23_1954)">
<path d="M26.5532 7.97735C28.7124 7.97735 30.4628 6.19152 30.4628 3.98865C30.4628 1.78577 28.7124 0 26.5532 0C24.394 0 22.6436 1.78577 22.6436 3.98865C22.6436 6.19152 24.394 7.97735 26.5532 7.97735Z" fill="url(#paint3_linear_23_1954)"/>
</g>
<mask id="mask2_23_1954" style="mask-type:alpha" maskUnits="userSpaceOnUse" x="45" y="0" width="9" height="8">
<path d="M49.1953 7.97735C51.3545 7.97735 53.1049 6.19152 53.1049 3.98865C53.1049 1.78577 51.3545 0 49.1953 0C47.036 0 45.2856 1.78577 45.2856 3.98865C45.2856 6.19152 47.036 7.97735 49.1953 7.97735Z" fill="url(#paint4_linear_23_1954)"/>
</mask>
<g mask="url(#mask2_23_1954)">
<path d="M49.1958 7.97735C51.355 7.97735 53.1054 6.19152 53.1054 3.98865C53.1054 1.78577 51.355 0 49.1958 0C47.0365 0 45.2861 1.78577 45.2861 3.98865C45.2861 6.19152 47.0365 7.97735 49.1958 7.97735Z" fill="url(#paint5_linear_23_1954)"/>
</g>
<mask id="mask3_23_1954" style="mask-type:alpha" maskUnits="userSpaceOnUse" x="67" y="0" width="9" height="8">
<path d="M71.8383 7.97735C73.9976 7.97735 75.748 6.19152 75.748 3.98865C75.748 1.78577 73.9976 0 71.8383 0C69.6791 0 67.9287 1.78577 67.9287 3.98865C67.9287 6.19152 69.6791 7.97735 71.8383 7.97735Z" fill="url(#paint6_linear_23_1954)"/>
</mask>
<g mask="url(#mask3_23_1954)">
<path d="M71.8388 7.97735C73.9981 7.97735 75.7485 6.19152 75.7485 3.98865C75.7485 1.78577 73.9981 0 71.8388 0C69.6796 0 67.9292 1.78577 67.9292 3.98865C67.9292 6.19152 69.6796 7.97735 71.8388 7.97735Z" fill="url(#paint7_linear_23_1954)"/>
</g>
<mask id="mask4_23_1954" style="mask-type:alpha" maskUnits="userSpaceOnUse" x="0" y="20" width="8" height="9">
<path d="M3.90962 28.0036C6.06885 28.0036 7.81925 26.2179 7.81925 24.015C7.81925 21.8121 6.06885 20.0264 3.90962 20.0264C1.7504 20.0264 0 21.8121 0 24.015C0 26.2179 1.7504 28.0036 3.90962 28.0036Z" fill="url(#paint8_linear_23_1954)"/>
</mask>
<g mask="url(#mask4_23_1954)">
<path d="M3.90962 28.0036C6.06885 28.0036 7.81925 26.2179 7.81925 24.015C7.81925 21.8121 6.06885 20.0264 3.90962 20.0264C1.7504 20.0264 0 21.8121 0 24.015C0 26.2179 1.7504 28.0036 3.90962 28.0036Z" fill="url(#paint9_linear_23_1954)"/>
</g>
<mask id="mask5_23_1954" style="mask-type:alpha" maskUnits="userSpaceOnUse" x="22" y="20" width="9" height="9">
<path d="M26.5527 28.0036C28.7119 28.0036 30.4623 26.2179 30.4623 24.015C30.4623 21.8121 28.7119 20.0264 26.5527 20.0264C24.3935 20.0264 22.6431 21.8121 22.6431 24.015C22.6431 26.2179 24.3935 28.0036 26.5527 28.0036Z" fill="url(#paint10_linear_23_1954)"/>
</mask>
<g mask="url(#mask5_23_1954)">
<path d="M26.5532 28.0036C28.7124 28.0036 30.4628 26.2179 30.4628 24.015C30.4628 21.8121 28.7124 20.0264 26.5532 20.0264C24.394 20.0264 22.6436 21.8121 22.6436 24.015C22.6436 26.2179 24.394 28.0036 26.5532 28.0036Z" fill="url(#paint11_linear_23_1954)"/>
</g>
<mask id="mask6_23_1954" style="mask-type:alpha" maskUnits="userSpaceOnUse" x="45" y="20" width="9" height="9">
<path d="M49.1953 28.0036C51.3545 28.0036 53.1049 26.2179 53.1049 24.015C53.1049 21.8121 51.3545 20.0264 49.1953 20.0264C47.036 20.0264 45.2856 21.8121 45.2856 24.015C45.2856 26.2179 47.036 28.0036 49.1953 28.0036Z" fill="url(#paint12_linear_23_1954)"/>
</mask>
<g mask="url(#mask6_23_1954)">
<path d="M49.1958 28.0036C51.355 28.0036 53.1054 26.2179 53.1054 24.015C53.1054 21.8121 51.355 20.0264 49.1958 20.0264C47.0365 20.0264 45.2861 21.8121 45.2861 24.015C45.2861 26.2179 47.0365 28.0036 49.1958 28.0036Z" fill="url(#paint13_linear_23_1954)"/>
</g>
<mask id="mask7_23_1954" style="mask-type:alpha" maskUnits="userSpaceOnUse" x="67" y="20" width="9" height="9">
<path d="M71.8383 28.0036C73.9976 28.0036 75.748 26.2179 75.748 24.015C75.748 21.8121 73.9976 20.0264 71.8383 20.0264C69.6791 20.0264 67.9287 21.8121 67.9287 24.015C67.9287 26.2179 69.6791 28.0036 71.8383 28.0036Z" fill="url(#paint14_linear_23_1954)"/>
</mask>
<g mask="url(#mask7_23_1954)">
<path d="M71.8388 28.0036C73.9981 28.0036 75.7485 26.2179 75.7485 24.015C75.7485 21.8121 73.9981 20.0264 71.8388 20.0264C69.6796 20.0264 67.9292 21.8121 67.9292 24.015C67.9292 26.2179 69.6796 28.0036 71.8388 28.0036Z" fill="url(#paint15_linear_23_1954)"/>
</g>
<mask id="mask8_23_1954" style="mask-type:alpha" maskUnits="userSpaceOnUse" x="0" y="40" width="8" height="8">
<path d="M3.90962 47.9886C6.06885 47.9886 7.81925 46.2028 7.81925 43.9999C7.81925 41.797 6.06885 40.0112 3.90962 40.0112C1.7504 40.0112 0 41.797 0 43.9999C0 46.2028 1.7504 47.9886 3.90962 47.9886Z" fill="url(#paint16_linear_23_1954)"/>
</mask>
<g mask="url(#mask8_23_1954)">
<path d="M3.90962 47.9886C6.06885 47.9886 7.81925 46.2028 7.81925 43.9999C7.81925 41.797 6.06885 40.0112 3.90962 40.0112C1.7504 40.0112 0 41.797 0 43.9999C0 46.2028 1.7504 47.9886 3.90962 47.9886Z" fill="url(#paint17_linear_23_1954)"/>
</g>
<mask id="mask9_23_1954" style="mask-type:alpha" maskUnits="userSpaceOnUse" x="22" y="40" width="9" height="8">
<path d="M26.5527 47.9891C28.7119 47.9891 30.4623 46.2033 30.4623 44.0004C30.4623 41.7975 28.7119 40.0117 26.5527 40.0117C24.3935 40.0117 22.6431 41.7975 22.6431 44.0004C22.6431 46.2033 24.3935 47.9891 26.5527 47.9891Z" fill="url(#paint18_linear_23_1954)"/>
</mask>
<g mask="url(#mask9_23_1954)">
<path d="M26.5532 47.9891C28.7124 47.9891 30.4628 46.2033 30.4628 44.0004C30.4628 41.7975 28.7124 40.0117 26.5532 40.0117C24.394 40.0117 22.6436 41.7975 22.6436 44.0004C22.6436 46.2033 24.394 47.9891 26.5532 47.9891Z" fill="url(#paint19_linear_23_1954)"/>
</g>
<mask id="mask10_23_1954" style="mask-type:alpha" maskUnits="userSpaceOnUse" x="45" y="40" width="9" height="8">
<path d="M49.1953 47.9891C51.3545 47.9891 53.1049 46.2033 53.1049 44.0004C53.1049 41.7975 51.3545 40.0117 49.1953 40.0117C47.036 40.0117 45.2856 41.7975 45.2856 44.0004C45.2856 46.2033 47.036 47.9891 49.1953 47.9891Z" fill="url(#paint20_linear_23_1954)"/>
</mask>
<g mask="url(#mask10_23_1954)">
<path d="M49.1958 47.9891C51.355 47.9891 53.1054 46.2033 53.1054 44.0004C53.1054 41.7975 51.355 40.0117 49.1958 40.0117C47.0365 40.0117 45.2861 41.7975 45.2861 44.0004C45.2861 46.2033 47.0365 47.9891 49.1958 47.9891Z" fill="url(#paint21_linear_23_1954)"/>
</g>
<mask id="mask11_23_1954" style="mask-type:alpha" maskUnits="userSpaceOnUse" x="67" y="40" width="9" height="8">
<path d="M71.8383 47.9891C73.9976 47.9891 75.748 46.2033 75.748 44.0004C75.748 41.7975 73.9976 40.0117 71.8383 40.0117C69.6791 40.0117 67.9287 41.7975 67.9287 44.0004C67.9287 46.2033 69.6791 47.9891 71.8383 47.9891Z" fill="url(#paint22_linear_23_1954)"/>
</mask>
<g mask="url(#mask11_23_1954)">
<path d="M71.8388 47.9891C73.9981 47.9891 75.7485 46.2033 75.7485 44.0004C75.7485 41.7975 73.9981 40.0117 71.8388 40.0117C69.6796 40.0117 67.9292 41.7975 67.9292 44.0004C67.9292 46.2033 69.6796 47.9891 71.8388 47.9891Z" fill="url(#paint23_linear_23_1954)"/>
</g>
<mask id="mask12_23_1954" style="mask-type:alpha" maskUnits="userSpaceOnUse" x="0" y="60" width="8" height="9">
<path d="M3.90962 68.0154C6.06885 68.0154 7.81925 66.2296 7.81925 64.0267C7.81925 61.8239 6.06885 60.0381 3.90962 60.0381C1.7504 60.0381 0 61.8239 0 64.0267C0 66.2296 1.7504 68.0154 3.90962 68.0154Z" fill="url(#paint24_linear_23_1954)"/>
</mask>
<g mask="url(#mask12_23_1954)">
<path d="M3.90962 68.0149C6.06885 68.0149 7.81925 66.2291 7.81925 64.0262C7.81925 61.8234 6.06885 60.0376 3.90962 60.0376C1.7504 60.0376 0 61.8234 0 64.0262C0 66.2291 1.7504 68.0149 3.90962 68.0149Z" fill="url(#paint25_linear_23_1954)"/>
</g>
<mask id="mask13_23_1954" style="mask-type:alpha" maskUnits="userSpaceOnUse" x="22" y="60" width="9" height="9">
<path d="M26.5527 68.0154C28.7119 68.0154 30.4623 66.2296 30.4623 64.0267C30.4623 61.8239 28.7119 60.0381 26.5527 60.0381C24.3935 60.0381 22.6431 61.8239 22.6431 64.0267C22.6431 66.2296 24.3935 68.0154 26.5527 68.0154Z" fill="url(#paint26_linear_23_1954)"/>
</mask>
<g mask="url(#mask13_23_1954)">
<path d="M26.5532 68.0149C28.7124 68.0149 30.4628 66.2291 30.4628 64.0262C30.4628 61.8234 28.7124 60.0376 26.5532 60.0376C24.394 60.0376 22.6436 61.8234 22.6436 64.0262C22.6436 66.2291 24.394 68.0149 26.5532 68.0149Z" fill="url(#paint27_linear_23_1954)"/>
</g>
<mask id="mask14_23_1954" style="mask-type:alpha" maskUnits="userSpaceOnUse" x="45" y="60" width="9" height="9">
<path d="M49.1953 68.0154C51.3545 68.0154 53.1049 66.2296 53.1049 64.0267C53.1049 61.8239 51.3545 60.0381 49.1953 60.0381C47.036 60.0381 45.2856 61.8239 45.2856 64.0267C45.2856 66.2296 47.036 68.0154 49.1953 68.0154Z" fill="url(#paint28_linear_23_1954)"/>
</mask>
<g mask="url(#mask14_23_1954)">
<path d="M49.1958 68.0149C51.355 68.0149 53.1054 66.2291 53.1054 64.0262C53.1054 61.8234 51.355 60.0376 49.1958 60.0376C47.0365 60.0376 45.2861 61.8234 45.2861 64.0262C45.2861 66.2291 47.0365 68.0149 49.1958 68.0149Z" fill="url(#paint29_linear_23_1954)"/>
</g>
<mask id="mask15_23_1954" style="mask-type:alpha" maskUnits="userSpaceOnUse" x="67" y="60" width="9" height="9">
<path d="M71.8383 68.0154C73.9976 68.0154 75.748 66.2296 75.748 64.0267C75.748 61.8239 73.9976 60.0381 71.8383 60.0381C69.6791 60.0381 67.9287 61.8239 67.9287 64.0267C67.9287 66.2296 69.6791 68.0154 71.8383 68.0154Z" fill="url(#paint30_linear_23_1954)"/>
</mask>
<g mask="url(#mask15_23_1954)">
<path d="M71.8388 68.0149C73.9981 68.0149 75.7485 66.2291 75.7485 64.0262C75.7485 61.8234 73.9981 60.0376 71.8388 60.0376C69.6796 60.0376 67.9292 61.8234 67.9292 64.0262C67.9292 66.2291 69.6796 68.0149 71.8388 68.0149Z" fill="url(#paint31_linear_23_1954)"/>
</g>
</g>
<defs>
<linearGradient id="paint0_linear_23_1954" x1="38.076" y1="92.4707" x2="-17.486" y2="-45.7764" gradientUnits="userSpaceOnUse">
<stop stop-color="#89C5CC"/>
<stop offset="1" stop-color="#89C5CC"/>
</linearGradient>
<linearGradient id="paint1_linear_23_1954" x1="38.076" y1="92.4707" x2="-17.486" y2="-45.7764" gradientUnits="userSpaceOnUse">
<stop stop-color="#89C5CC"/>
<stop offset="1" stop-color="#89C5CC"/>
</linearGradient>
<linearGradient id="paint2_linear_23_1954" x1="60.7191" y1="92.4707" x2="5.15712" y2="-45.7764" gradientUnits="userSpaceOnUse">
<stop stop-color="#89C5CC"/>
<stop offset="1" stop-color="#89C5CC"/>
</linearGradient>
<linearGradient id="paint3_linear_23_1954" x1="60.7196" y1="92.4707" x2="5.15761" y2="-45.7764" gradientUnits="userSpaceOnUse">
<stop stop-color="#89C5CC"/>
<stop offset="1" stop-color="#89C5CC"/>
</linearGradient>
<linearGradient id="paint4_linear_23_1954" x1="83.3617" y1="92.4707" x2="27.7997" y2="-45.7764" gradientUnits="userSpaceOnUse">
<stop stop-color="#89C5CC"/>
<stop offset="1" stop-color="#89C5CC"/>
</linearGradient>
<linearGradient id="paint5_linear_23_1954" x1="83.3622" y1="92.4707" x2="27.8002" y2="-45.7764" gradientUnits="userSpaceOnUse">
<stop stop-color="#89C5CC"/>
<stop offset="1" stop-color="#89C5CC"/>
</linearGradient>
<linearGradient id="paint6_linear_23_1954" x1="106.005" y1="92.4707" x2="50.4428" y2="-45.7764" gradientUnits="userSpaceOnUse">
<stop stop-color="#89C5CC"/>
<stop offset="1" stop-color="#89C5CC"/>
</linearGradient>
<linearGradient id="paint7_linear_23_1954" x1="106.005" y1="92.4707" x2="50.4432" y2="-45.7764" gradientUnits="userSpaceOnUse">
<stop stop-color="#89C5CC"/>
<stop offset="1" stop-color="#89C5CC"/>
</linearGradient>
<linearGradient id="paint8_linear_23_1954" x1="38.076" y1="112.496" x2="-17.4851" y2="-25.7499" gradientUnits="userSpaceOnUse">
<stop stop-color="#89C5CC"/>
<stop offset="1" stop-color="#89C5CC"/>
</linearGradient>
<linearGradient id="paint9_linear_23_1954" x1="38.076" y1="112.496" x2="-17.4851" y2="-25.7499" gradientUnits="userSpaceOnUse">
<stop stop-color="#89C5CC"/>
<stop offset="1" stop-color="#89C5CC"/>
</linearGradient>
<linearGradient id="paint10_linear_23_1954" x1="60.7191" y1="112.496" x2="5.15806" y2="-25.75" gradientUnits="userSpaceOnUse">
<stop stop-color="#89C5CC"/>
<stop offset="1" stop-color="#89C5CC"/>
</linearGradient>
<linearGradient id="paint11_linear_23_1954" x1="60.7196" y1="112.496" x2="5.15855" y2="-25.75" gradientUnits="userSpaceOnUse">
<stop stop-color="#89C5CC"/>
<stop offset="1" stop-color="#89C5CC"/>
</linearGradient>
<linearGradient id="paint12_linear_23_1954" x1="83.3617" y1="112.496" x2="27.8006" y2="-25.75" gradientUnits="userSpaceOnUse">
<stop stop-color="#89C5CC"/>
<stop offset="1" stop-color="#89C5CC"/>
</linearGradient>
<linearGradient id="paint13_linear_23_1954" x1="83.3622" y1="112.496" x2="27.8011" y2="-25.75" gradientUnits="userSpaceOnUse">
<stop stop-color="#89C5CC"/>
<stop offset="1" stop-color="#89C5CC"/>
</linearGradient>
<linearGradient id="paint14_linear_23_1954" x1="106.005" y1="112.496" x2="50.4437" y2="-25.75" gradientUnits="userSpaceOnUse">
<stop stop-color="#89C5CC"/>
<stop offset="1" stop-color="#89C5CC"/>
</linearGradient>
<linearGradient id="paint15_linear_23_1954" x1="106.005" y1="112.496" x2="50.4442" y2="-25.75" gradientUnits="userSpaceOnUse">
<stop stop-color="#89C5CC"/>
<stop offset="1" stop-color="#89C5CC"/>
</linearGradient>
<linearGradient id="paint16_linear_23_1954" x1="38.076" y1="132.482" x2="-17.486" y2="-5.76516" gradientUnits="userSpaceOnUse">
<stop stop-color="#89C5CC"/>
<stop offset="1" stop-color="#89C5CC"/>
</linearGradient>
<linearGradient id="paint17_linear_23_1954" x1="38.076" y1="132.482" x2="-17.486" y2="-5.76516" gradientUnits="userSpaceOnUse">
<stop stop-color="#89C5CC"/>
<stop offset="1" stop-color="#89C5CC"/>
</linearGradient>
<linearGradient id="paint18_linear_23_1954" x1="60.7191" y1="132.482" x2="5.15712" y2="-5.76472" gradientUnits="userSpaceOnUse">
<stop stop-color="#89C5CC"/>
<stop offset="1" stop-color="#89C5CC"/>
</linearGradient>
<linearGradient id="paint19_linear_23_1954" x1="60.7196" y1="132.482" x2="5.15761" y2="-5.76472" gradientUnits="userSpaceOnUse">
<stop stop-color="#89C5CC"/>
<stop offset="1" stop-color="#89C5CC"/>
</linearGradient>
<linearGradient id="paint20_linear_23_1954" x1="83.3617" y1="132.482" x2="27.7997" y2="-5.76472" gradientUnits="userSpaceOnUse">
<stop stop-color="#89C5CC"/>
<stop offset="1" stop-color="#89C5CC"/>
</linearGradient>
<linearGradient id="paint21_linear_23_1954" x1="83.3622" y1="132.482" x2="27.8002" y2="-5.76472" gradientUnits="userSpaceOnUse">
<stop stop-color="#89C5CC"/>
<stop offset="1" stop-color="#89C5CC"/>
</linearGradient>
<linearGradient id="paint22_linear_23_1954" x1="106.005" y1="132.482" x2="50.4428" y2="-5.76472" gradientUnits="userSpaceOnUse">
<stop stop-color="#89C5CC"/>
<stop offset="1" stop-color="#89C5CC"/>
</linearGradient>
<linearGradient id="paint23_linear_23_1954" x1="106.005" y1="132.482" x2="50.4432" y2="-5.76472" gradientUnits="userSpaceOnUse">
<stop stop-color="#89C5CC"/>
<stop offset="1" stop-color="#89C5CC"/>
</linearGradient>
<linearGradient id="paint24_linear_23_1954" x1="38.076" y1="152.509" x2="-17.486" y2="14.2617" gradientUnits="userSpaceOnUse">
<stop stop-color="#89C5CC"/>
<stop offset="1" stop-color="#89C5CC"/>
</linearGradient>
<linearGradient id="paint25_linear_23_1954" x1="38.076" y1="152.508" x2="-17.486" y2="14.2612" gradientUnits="userSpaceOnUse">
<stop stop-color="#89C5CC"/>
<stop offset="1" stop-color="#89C5CC"/>
</linearGradient>
<linearGradient id="paint26_linear_23_1954" x1="60.7191" y1="152.509" x2="5.15712" y2="14.2616" gradientUnits="userSpaceOnUse">
<stop stop-color="#89C5CC"/>
<stop offset="1" stop-color="#89C5CC"/>
</linearGradient>
<linearGradient id="paint27_linear_23_1954" x1="60.7196" y1="152.508" x2="5.15761" y2="14.2612" gradientUnits="userSpaceOnUse">
<stop stop-color="#89C5CC"/>
<stop offset="1" stop-color="#89C5CC"/>
</linearGradient>
<linearGradient id="paint28_linear_23_1954" x1="83.3617" y1="152.509" x2="27.7997" y2="14.2616" gradientUnits="userSpaceOnUse">
<stop stop-color="#89C5CC"/>
<stop offset="1" stop-color="#89C5CC"/>
</linearGradient>
<linearGradient id="paint29_linear_23_1954" x1="83.3622" y1="152.508" x2="27.8002" y2="14.2612" gradientUnits="userSpaceOnUse">
<stop stop-color="#89C5CC"/>
<stop offset="1" stop-color="#89C5CC"/>
</linearGradient>
<linearGradient id="paint30_linear_23_1954" x1="106.005" y1="152.509" x2="50.4428" y2="14.2616" gradientUnits="userSpaceOnUse">
<stop stop-color="#89C5CC"/>
<stop offset="1" stop-color="#89C5CC"/>
</linearGradient>
<linearGradient id="paint31_linear_23_1954" x1="106.005" y1="152.508" x2="50.4432" y2="14.2612" gradientUnits="userSpaceOnUse">
<stop stop-color="#89C5CC"/>
<stop offset="1" stop-color="#89C5CC"/>
</linearGradient>
</defs>
</svg>
