<svg width="24" height="25" viewBox="0 0 24 25" fill="none" xmlns="http://www.w3.org/2000/svg">
<path d="M16.6 14.5001C16.4 14.4001 15.1 13.8001 14.9 13.7001C14.7 13.6001 14.5 13.6001 14.3 13.8001C14.1 14.0001 13.7 14.6001 13.5 14.8001C13.4 15.0001 13.2 15.0001 13 14.9001C12.3 14.6001 11.6 14.2001 11 13.7001C10.5 13.2001 10 12.6001 9.6 12.0001C9.5 11.8001 9.6 11.6001 9.7 11.5001C9.8 11.4001 9.9 11.2001 10.1 11.1001C10.2 11.0001 10.3 10.8001 10.3 10.7001C10.4 10.6001 10.4 10.4001 10.3 10.3001C10.2 10.2001 9.7 9.0001 9.5 8.5001C9.4 7.8001 9.2 7.8001 9 7.8001C8.9 7.8001 8.7 7.8001 8.5 7.8001C8.3 7.8001 8 8.0001 7.9 8.1001C7.3 8.7001 7 9.4001 7 10.2001C7.1 11.1001 7.4 12.0001 8 12.8001C9.1 14.4001 10.5 15.7001 12.2 16.5001C12.7 16.7001 13.1 16.9001 13.6 17.0001C14.1 17.2001 14.6 17.2001 15.2 17.1001C15.9 17.0001 16.5 16.5001 16.9 15.9001C17.1 15.5001 17.1 15.1001 17 14.7001C17 14.7001 16.8 14.6001 16.6 14.5001ZM19.1 5.4001C15.2 1.5001 8.9 1.5001 5 5.4001C1.8 8.6001 1.2 13.5001 3.4 17.4001L2 22.5001L7.3 21.1001C8.8 21.9001 10.4 22.3001 12 22.3001C17.5 22.3001 21.9 17.9001 21.9 12.4001C22 9.8001 20.9 7.3001 19.1 5.4001ZM16.4 19.4001C15.1 20.2001 13.6 20.7001 12 20.7001C10.5 20.7001 9.1 20.3001 7.8 19.6001L7.5 19.4001L4.4 20.2001L5.2 17.2001L5 16.9001C2.6 12.9001 3.8 7.9001 7.7 5.4001C11.6 2.9001 16.6 4.2001 19 8.0001C21.4 11.9001 20.3 17.0001 16.4 19.4001Z" fill="#F9F9F9"/>
</svg>
